Coordinates
version=1
nRows=19
nColumns=34
inDegrees=yes

Units are S.I. units (second, meters, Newtons, ...)
If the header above contains a line with 'inDegrees', this indicates whether rotational values are in degrees (yes) or radians (no).

endheader
time	pelvis_tilt	pelvis_list	pelvis_rotation	pelvis_tx	pelvis_ty	pelvis_tz	hip_flexion_r	hip_adduction_r	hip_rotation_r	knee_angle_r	ankle_angle_r	subtalar_angle_r	mtp_angle_r	hip_flexion_l	hip_adduction_l	hip_rotation_l	knee_angle_l	ankle_angle_l	subtalar_angle_l	mtp_angle_l	lumbar_extension	lumbar_bending	lumbar_rotation	arm_flex_r	arm_add_r	arm_rot_r	elbow_flex_r	pro_sup_r	arm_flex_l	arm_add_l	arm_rot_l	elbow_flex_l	pro_sup_l
      5.95000000	     -0.78628832	    -21.90742205	    -52.90274599	      1.61974376	      1.08344686	      6.45531761	    -13.87237508	     17.82113676	     10.81976018	      8.34662496	     10.12874214	      7.39852898	      0.00000000	     -1.59421990	     -0.71969773	     -4.65927356	     30.62142055	      8.09507742	    -19.15589837	      0.00000000	    -14.04739607	      1.73213118	      1.10510576	     17.21604482	      2.63342873	      8.23400998	     33.58211140	    116.49753459	     19.53416280	      1.41895172	     34.00227137	     29.12881969	    113.20878998
      5.96666670	      0.23633082	    -21.89568697	    -52.47811079	      1.61927914	      1.08354398	      6.45810942	    -13.53763998	     17.16383199	      8.89451387	     10.36847972	     11.95497280	      9.07757104	      0.00000000	     -1.74617146	     -0.40682406	     -5.76436625	     32.75398081	     12.49149113	    -12.34383728	      0.00000000	    -14.16874316	      0.99736096	      1.28954857	     17.48677183	      2.65161444	      9.22841633	     32.58328131	    117.44669926	     19.26436167	      1.83133691	     32.44610975	     28.02942399	    113.84682351
      5.98333330	      1.13478916	    -21.55533929	    -52.05996165	      1.61875398	      1.08380846	      6.46083836	    -13.34492950	     16.45255379	      8.12033369	     11.43145255	     12.79888119	      9.05853105	      0.00000000	     -2.10341904	     -0.01775683	     -6.69758180	     33.56734399	     12.62206673	     -9.47269134	      0.00000000	    -13.97120756	      0.16942754	      1.44064642	     17.61229973	      2.84556778	      9.94276236	     31.59443770	    117.94351839	     19.19718216	      2.35518831	     31.55671105	     26.29913788	    114.06990286
      6.00000000	      2.02185702	    -21.18980053	    -51.07384036	      1.61934992	      1.08420183	      6.46262729	    -13.40884617	     15.83333353	      7.63711298	     11.80281899	     13.24154166	      8.89367710	      0.00000000	     -2.30065254	      0.01799897	     -8.30509471	     34.41871174	     11.00614291	     -7.46452221	      0.00000000	    -13.74228468	     -0.36919584	      1.06871972	     17.58146326	      2.98790627	     10.63175390	     31.19711349	    118.26003503	     18.90279177	      2.94351467	     30.98840750	     25.28389358	    114.13879619
      6.01666670	      3.15065500	    -21.15103771	    -50.34378257	      1.62086451	      1.08535121	      6.46569341	    -13.92771975	     15.10376158	      6.66094301	     12.51271814	     14.31868918	      9.30068171	      0.00000000	     -3.70903350	     -0.23168000	    -10.90766528	     34.28520204	     11.10580006	     -2.95101887	      0.00000000	    -13.79763745	     -0.89308671	      1.14827527	     17.70768137	      2.92802262	     12.66727396	     30.02832349	    119.29367816	     18.22948725	      3.89389226	     29.11138513	     24.52527948	    114.39951286
      6.03333330	      3.70134063	    -20.83205587	    -49.40630473	      1.62277700	      1.08529104	      6.46742572	    -13.90567633	     14.75452648	      6.19327014	     12.87218348	     14.69603207	      8.62640048	      0.00000000	     -4.21928282	     -0.23945844	    -11.31145026	     34.17846201	      9.91383051	     -1.08341540	      0.00000000	    -13.49631560	     -1.11641255	      0.88157119	     17.64596125	      2.95786780	     13.07077445	     29.25571417	    119.50290825	     18.04309189	      4.88099807	     28.78626999	     23.00485439	    114.44017244
      6.05000000	      4.41623956	    -21.15935252	    -48.86652466	      1.62428587	      1.08609553	      6.46973696	    -14.81288509	     14.60135055	      6.12928031	     12.90330162	     14.96182198	      8.43724311	      0.00000000	     -5.63751368	     -0.71550234	    -12.85411525	     33.91643897	     10.55356406	      1.95386527	      0.00000000	    -13.74245438	     -1.23108495	      0.97092291	     17.95685295	      2.76383919	     14.85358617	     27.83579345	    119.74817918	     17.75494699	      5.83405921	     28.17872788	     21.87042824	    114.53080658
      6.06666670	      4.75105430	    -21.02916015	    -48.19331568	      1.62515004	      1.08593082	      6.47179648	    -15.06915142	     14.53603682	      5.81469189	     12.77586590	     15.09385427	      8.01226152	      0.00000000	     -6.22933658	     -1.01143268	    -13.39002213	     33.86849864	     10.59686662	      3.13686336	      0.00000000	    -13.50644889	     -1.42925891	      1.12606395	     17.92190164	      2.67176800	     15.31059486	     26.68056703	    119.74817918	     17.70897449	      6.82069101	     27.72833348	     20.10671688	    114.39452236
      6.08333330	      5.12254282	    -21.41509392	    -48.18552212	      1.62493010	      1.08632926	      6.47366632	    -16.03566939	     14.61983037	      6.35816514	     12.27005108	     15.04320204	      7.61479817	      0.00000000	     -7.54625448	     -1.61185126	    -14.23257021	     33.35489633	     10.91604061	      5.95665824	      0.00000000	    -14.00712568	     -1.34032571	      1.76632994	     18.53072928	      2.36455166	     16.86807974	     25.63665490	    119.74817918	     17.56355645	      7.75934222	     26.10718586	     19.00789636	    113.56950828
      6.10000000	      5.02561168	    -21.52884095	    -48.27249111	      1.62399750	      1.08574881	      6.47428654	    -16.15089412	     14.84659368	      6.66645565	     12.13065999	     15.18682106	      7.37485255	      0.00000000	     -7.91207206	     -1.85847196	    -13.41473681	     33.03614630	     10.57983368	      6.17866774	      0.00000000	    -14.12199699	     -1.20895558	      2.49366881	     19.06095156	      2.10938205	     17.16465162	     24.64230183	    119.74817918	     17.85968321	      8.75284214	     25.54588521	     17.49172437	    113.23820986
      6.11666670	      5.41481440	    -21.98475281	    -48.22897034	      1.62221422	      1.08644334	      6.47460242	    -17.11975425	     15.01346085	      7.64223694	     11.44440926	     14.63686243	      6.47497095	      0.00000000	     -9.14053018	     -1.89139388	    -12.78453939	     32.18349361	      9.39488278	      5.02250833	      0.00000000	    -14.89588639	     -1.22854431	      3.00611488	     19.71534646	      1.69330728	     19.47461045	     23.81052353	    119.73368282	     18.25599759	      9.73233468	     23.29399984	     16.71425913	    111.67128138
      6.13333330	      5.77488995	    -22.09575887	    -47.85266917	      1.61978365	      1.08698394	      6.47484295	    -17.72614278	     15.09178892	      8.10857923	     10.69312874	     14.03753731	      5.66443648	      0.00000000	     -9.84402191	     -2.06058118	    -12.54794371	     31.51010812	      8.08635517	      4.32343140	      0.00000000	    -15.52660078	     -1.40274363	      3.31184465	     20.32155417	      1.51046634	     20.76486520	     23.47602569	    119.58481223	     18.83373310	     10.46958560	     21.59160141	     16.00248645	    110.24435339
      6.15000000	      6.18310353	    -21.94828892	    -47.61262086	      1.61684857	      1.08782378	      6.47555899	    -18.17689127	     14.91074003	      8.27981745	      9.92469322	     13.55463196	      5.21420721	      0.00000000	    -10.39380411	     -2.02516136	    -12.49624425	     30.77885999	      7.11599768	      4.25681664	      0.00000000	    -15.91867767	     -1.89965955	      3.76703367	     20.73501941	      1.48799346	     21.52014234	     23.78992574	    119.45652924	     19.36964983	     11.01416025	     20.51399710	     15.11873563	    109.42122176
      6.16666670	      6.67003596	    -21.82436898	    -47.75918672	      1.61381033	      1.08928050	      6.47678197	    -19.01580424	     14.50722963	      9.03121873	      8.71804784	     12.89505617	      5.13399237	      0.00000000	    -11.43661686	     -1.75767820	    -12.53224363	     29.53685135	      6.12996191	      4.22053181	      0.00000000	    -16.29718907	     -2.54249124	      4.14866081	     20.99422516	      1.57004771	     22.42940671	     24.49794203	    119.22176925	     19.34431456	     11.30735133	     18.90096309	     15.07967885	    108.26986946
      6.18333330	      6.98517771	    -21.67077587	    -48.28564200	      1.61098491	      1.09069331	      6.47842562	    -19.64556185	     14.10047018	     10.01946011	      7.75449910	     12.16925139	      4.65835682	      0.00000000	    -12.45313180	     -1.38951304	    -12.27565559	     28.19923470	      5.22869382	      4.34565060	      0.00000000	    -16.53377588	     -3.13729012	      5.06157674	     21.23180129	      1.59635489	     23.03684629	     25.00979131	    118.75034700	     19.18386983	     11.65919783	     17.10603413	     15.30019624	    106.89934856
      6.20000000	      6.83660525	    -20.99331430	    -48.70894661	      1.60845353	      1.09138681	      6.48108064	    -19.32945259	     13.80137896	     10.31982106	      7.18627443	     11.82751880	      4.69184495	      0.00000000	    -12.72187262	     -1.07181149	    -11.73882424	     26.88350098	      4.62174712	      4.96973651	      0.00000000	    -15.81181917	     -3.75272177	      6.07770054	     20.71779001	      1.58060638	     23.32261806	     25.84253964	    118.68015823	     18.79386597	     11.74140022	     16.65752529	     15.50301788	    106.60081053
      6.21666670	      7.19660569	    -20.33117641	    -49.57758882	      1.60502736	      1.09299772	      6.48497844	    -19.28442491	     13.01919251	     11.49504130	      6.98060034	     11.84730398	      4.59694226	      0.00000000	    -13.89311286	     -0.16642564	    -11.76747468	     24.40481028	      3.43673735	      5.54742442	      0.00000000	    -15.32571743	     -4.88305994	      7.62202329	     20.04053249	      1.46202474	     23.41928054	     27.28662549	    118.45007001	     18.34350152	     11.83260192	     15.12295777	     16.10695106	    105.81600499
      6.23333330	      7.22124760	    -19.77755765	    -50.98698099	      1.60191448	      1.09463627	      6.48940943	    -19.30734702	     12.37558591	     12.82145987	      6.49358503	     11.22471331	      4.30629015	      0.00000000	    -15.28943378	      0.62822530	    -11.97469237	     21.35344854	      1.84050361	      5.99295127	      0.00000000	    -14.71130725	     -5.62761194	      9.59697856	     19.37438820	      1.41313183	     23.23900190	     28.23929677	    118.07089529	     17.67919480	     12.21526259	     12.62760936	     16.73740676	    104.64967251
      6.25000000	      6.82701701	    -18.82530190	    -52.39563828	      1.59865931	      1.09523441	      6.49402543	    -18.46307328	     11.89255534	     13.86193922	      6.41827156	     11.14073537	      4.41404131	      0.00000000	    -16.02714341	      1.21110278	    -12.26791846	     18.48567582	      0.20930621	      7.44293671	      0.00000000	    -13.57581324	     -6.37500952	     11.43895901	     18.53882508	      1.26968406	     23.48676278	     29.33523174	    117.93828994	     16.91235749	     12.44916741	     11.00609906	     17.39021741	    103.95948580
